<?xml version="1.0" encoding="UTF-8"?>
<svg width="921px" height="84px" viewBox="0 0 921 84" version="1.1" xmlns="http://www.w3.org/2000/svg" xmlns:xlink="http://www.w3.org/1999/xlink">
    <!-- Generator: Sketch 52.6 (67491) - http://www.bohemiancoding.com/sketch -->
    <title>Artboard</title>
    <desc>Created with Sketch.</desc>
    <g id="Artboard" stroke="none" stroke-width="1" fill="none" fill-rule="evenodd">
        <path d="M129,38.4577236 L129,81.0468412 L112.394402,81.0468412 C112.408956,74.0989312 112.909069,68.2097754 112.914361,68.150369 L112.97919,67.4084489 L111.875767,68.307466 C99.3729462,78.7207501 82.7977785,84 62.6053927,84 C13.1868372,84 0,57.913984 0,42.5013201 C0,28.1460905 13.4144018,1 64.1851142,1 C96.0851675,1 118.812517,14.1063749 118.182745,13.551915 L110.178294,30.55007 C110.178294,30.55007 91.0337634,19.2272077 64.1851142,19.2272077 C34.3424032,19.2272077 23.5092716,31.744799 23.5092716,42.5013201 C23.5092716,53.2578413 32.953201,65.7754326 62.6053927,65.7754326 C78.1432894,65.7754326 91.9506369,61.8321669 100.486954,54.9568647 L101.182878,54.3971243 L81.8967816,54.3971243 L81.8967816,38.4577236 L129,38.4577236 Z M575.495995,65 C547.017183,65 537,50.946979 537,41.5013123 C537,25.3565446 556.80206,18 575.495995,18 C600.984204,18 614,29.8234867 614,41.5013123 C614,57.7090686 591.615875,65 575.495995,65 Z M617.1269,10.5388653 C605.625833,3.74134339 590.870675,0 574.999335,0 C559.127995,0 544.372837,3.74134339 532.871769,10.5388653 C520.057624,18.1086829 513,29.1056449 513,41.5019802 C513,53.8969954 520.057624,64.8939575 532.871769,72.4664154 C544.372837,79.2599768 559.127995,83 574.999335,83 C590.869345,83 605.625833,79.2599768 617.1269,72.4664154 C629.941045,64.8926373 637,53.8969954 637,41.5019802 C637,29.1056449 629.941045,18.1086829 617.1269,10.5388653 Z M730.455464,34 L674,34 L674,22 L730.455464,22 C734.06477,22 737,24.6910055 737,27.9987763 C737,31.3077708 734.06477,34 730.455464,34 Z M735.476918,63 L674,63 L674,51 L735.476918,51 C739.072464,51 742,53.69128 742,56.9993881 C742,60.3074962 739.072464,63 735.476918,63 Z M653,81 L736.582277,81 C751.88943,81 763,71.141159 763,57.5581299 C763,51.0315955 759.938569,44.7010019 754.600141,40.191736 L754.398009,40.0207811 L754.53321,39.7945945 C756.641541,36.3057983 757.756614,32.3804094 757.756614,28.4405551 C757.756614,15.9529528 745.860272,5 732.296006,5 L653,5 L653,81 Z M861.276683,81 L883.721982,81 L883.721982,22.7898361 L921,22.7898361 L921,5 L824,5 L824,22.7898361 L861.276683,22.7898361 L861.276683,81 Z M782,81 L806,81 L806,5 L782,5 L782,81 Z M301.276683,81 L323.721982,81 L323.721982,22.7898361 L361,22.7898361 L361,5 L264,5 L264,22.7898361 L301.276683,22.7898361 L301.276683,81 Z M150,81 L249,81 L249,63.2088488 L171.066006,63.2088488 L171.066006,50.9658436 L247.731604,50.9658436 L247.731604,35.0578271 L171.066006,35.0578271 L171.066006,22.7898361 L249,22.7898361 L249,5 L150,5 L150,81 Z M477.647965,81 L500,81 L500,5 L467.576655,5 L438.809079,63.2246293 L410.040173,5 L377,5 L377,81 L399.352035,81 L399.352035,22.8490129 L427.428338,81 L450.429106,81 L477.647965,24.7400377 L477.647965,81 Z" id="Fill-46" fill="#000000"></path>
    </g>
</svg>